<svg width="61" height="70" viewBox="0 0 61 70" fill="none" xmlns="http://www.w3.org/2000/svg">
<path d="M30.5 0C28.09 0 26.1429 1.95508 26.1429 4.375V7C16.2031 9.02344 8.7143 17.8555 8.7143 28.4375V31.0078C8.7143 37.4336 6.35872 43.6406 2.11051 48.4531L1.10292 49.5879C-0.04083 50.873 -0.313152 52.7188 0.381268 54.291C1.07569 55.8633 2.64154 56.875 4.35716 56.875H56.6429C58.3585 56.875 59.9107 55.8633 60.6188 54.291C61.3268 52.7188 61.0409 50.873 59.8971 49.5879L58.8895 48.4531C54.6413 43.6406 52.2857 37.4473 52.2857 31.0078V28.4375C52.2857 17.8555 44.7969 9.02344 34.8572 7V4.375C34.8572 1.95508 32.9101 0 30.5 0ZM36.6681 67.4434C38.302 65.8027 39.2143 63.5742 39.2143 61.25H30.5H21.7857C21.7857 63.5742 22.698 65.8027 24.3319 67.4434C25.9659 69.084 28.1853 70 30.5 70C32.8148 70 35.0342 69.084 36.6681 67.4434Z" fill="#4E4E4E"/>
</svg>
