<svg width="35" height="40" viewBox="0 0 35 40" fill="none" xmlns="http://www.w3.org/2000/svg">
<path d="M0 32.5C0 33.8828 1.11719 35 2.5 35H32.5C33.8828 35 35 33.8828 35 32.5C35 31.1172 33.8828 30 32.5 30H2.5C1.11719 30 0 31.1172 0 32.5ZM0 20C0 21.3828 1.11719 22.5 2.5 22.5H32.5C33.8828 22.5 35 21.3828 35 20C35 18.6172 33.8828 17.5 32.5 17.5H2.5C1.11719 17.5 0 18.6172 0 20ZM35 7.5C35 6.11719 33.8828 5 32.5 5H2.5C1.11719 5 0 6.11719 0 7.5C0 8.88281 1.11719 10 2.5 10H32.5C33.8828 10 35 8.88281 35 7.5Z" fill="black"/>
</svg>
