<svg width="52" height="69" viewBox="0 0 52 69" fill="none" xmlns="http://www.w3.org/2000/svg">
<path d="M29.2094 67.275C36.1562 58.6231 52 37.6535 52 25.875C52 11.5898 40.3542 0 26 0C11.6458 0 0 11.5898 0 25.875C0 37.6535 15.8438 58.6231 22.7906 67.275C24.4563 69.3369 27.5438 69.3369 29.2094 67.275ZM26 34.5C21.2198 34.5 17.3333 30.6322 17.3333 25.875C17.3333 21.1178 21.2198 17.25 26 17.25C30.7802 17.25 34.6667 21.1178 34.6667 25.875C34.6667 30.6322 30.7802 34.5 26 34.5Z" fill="#4E4E4E"/>
</svg>
