<svg width="70" height="70" viewBox="0 0 70 70" fill="none" xmlns="http://www.w3.org/2000/svg">
<path d="M41.9727 4.75776C40.4004 5.45502 39.375 7.02729 39.375 8.74995V17.4999H24.0625C10.7734 17.4999 0 28.2734 0 41.5624C0 57.0527 11.1426 63.9706 13.6992 65.3652C14.041 65.5566 14.4238 65.6249 14.8066 65.6249C16.2969 65.6249 17.5 64.4081 17.5 62.9316C17.5 61.9062 16.9121 60.9628 16.1602 60.2656C14.875 59.0488 13.125 56.6562 13.125 52.4999C13.125 45.2539 19.0039 39.3749 26.25 39.3749H39.375V48.1249C39.375 49.8476 40.3867 51.4199 41.9727 52.1171C43.5586 52.8144 45.3906 52.5273 46.6758 51.3788L68.5508 31.6914C69.4668 30.8574 70 29.6816 70 28.4374C70 27.1933 69.4805 26.0175 68.5508 25.1835L46.6758 5.49604C45.3906 4.33393 43.5449 4.04682 41.9727 4.75776Z" fill="#4E4E4E"/>
</svg>
