<svg width="37" height="28" viewBox="0 0 37 28" fill="none" xmlns="http://www.w3.org/2000/svg">
<g clip-path="url(#clip0_248_236)">
<path d="M20.3563 0.984375C20.0159 0.382812 19.2964 0 18.5063 0C17.7162 0 17.0032 0.382812 16.6563 0.984375L12.5259 8.21953L3.30163 9.37891C2.5308 9.47734 1.88843 9.93672 1.65076 10.5656C1.41309 11.1945 1.6058 11.8891 2.15823 12.3539L8.85163 17.9922L7.27142 25.9602C7.14295 26.6164 7.46413 27.2836 8.10007 27.6719C8.736 28.0602 9.5775 28.1094 10.2712 27.7977L18.5127 24.0516L26.7542 27.7977C27.448 28.1094 28.2895 28.0656 28.9254 27.6719C29.5614 27.2781 29.8825 26.6164 29.7541 25.9602L28.1674 17.9922L34.8608 12.3539C35.4133 11.8891 35.6124 11.1945 35.3683 10.5656C35.1242 9.93672 34.4883 9.47734 33.7174 9.37891L24.4867 8.21953L20.3563 0.984375Z" fill="#638A5C"/>
</g>
<defs>
<clipPath id="clip0_248_236">
<rect width="37" height="28" fill="white"/>
</clipPath>
</defs>
</svg>
